<svg width="1298" height="312" xmlns="http://www.w3.org/2000/svg" xmlns:xlink="http://www.w3.org/1999/xlink" overflow="hidden"><defs><clipPath id="clip0"><path d="M17 204 1315 204 1315 516 17 516Z" fill-rule="evenodd" clip-rule="evenodd"/></clipPath><linearGradient x1="47.7231" y1="386.553" x2="293.556" y2="386.553" gradientUnits="userSpaceOnUse" spreadMethod="reflect" id="fill1"><stop offset="0"/><stop offset="0.015873" stop-color="#010101"/><stop offset="0.031746" stop-color="#030303"/><stop offset="0.047619" stop-color="#050505"/><stop offset="0.0634921" stop-color="#070707"/><stop offset="0.0793651" stop-color="#090909"/><stop offset="0.0952381" stop-color="#0A0A0A"/><stop offset="0.111111" stop-color="#0C0C0C"/><stop offset="0.126984" stop-color="#0E0E0E"/><stop offset="0.142857" stop-color="#101010"/><stop offset="0.15873" stop-color="#111111"/><stop offset="0.174603" stop-color="#131313"/><stop offset="0.190476" stop-color="#141414"/><stop offset="0.206349" stop-color="#161616"/><stop offset="0.222222" stop-color="#181818"/><stop offset="0.238095" stop-color="#191919"/><stop offset="0.253968" stop-color="#1B1B1B"/><stop offset="0.269841" stop-color="#1C1C1C"/><stop offset="0.285714" stop-color="#1D1D1D"/><stop offset="0.301587" stop-color="#1F1F1F"/><stop offset="0.31746" stop-color="#202020"/><stop offset="0.333333" stop-color="#222222"/><stop offset="0.349206" stop-color="#232323"/><stop offset="0.365079" stop-color="#242424"/><stop offset="0.380952" stop-color="#252525"/><stop offset="0.396825" stop-color="#272727"/><stop offset="0.412698" stop-color="#282828"/><stop offset="0.428571" stop-color="#292929"/><stop offset="0.444444" stop-color="#2A2A2A"/><stop offset="0.460317" stop-color="#2B2B2B"/><stop offset="0.47619" stop-color="#2C2C2C"/><stop offset="0.492063" stop-color="#2E2E2E"/><stop offset="0.507937" stop-color="#2F2F2F"/><stop offset="0.52381" stop-color="#303030"/><stop offset="0.539683" stop-color="#313131"/><stop offset="0.555556" stop-color="#323232"/><stop offset="0.571429" stop-color="#323232"/><stop offset="0.587302" stop-color="#333333"/><stop offset="0.603175" stop-color="#343434"/><stop offset="0.619048" stop-color="#353535"/><stop offset="0.634921" stop-color="#363636"/><stop offset="0.650794" stop-color="#373737"/><stop offset="0.666667" stop-color="#373737"/><stop offset="0.68254" stop-color="#383838"/><stop offset="0.698413" stop-color="#393939"/><stop offset="0.714286" stop-color="#393939"/><stop offset="0.730159" stop-color="#3A3A3A"/><stop offset="0.746032" stop-color="#3B3B3B"/><stop offset="0.761905" stop-color="#3B3B3B"/><stop offset="0.777778" stop-color="#3C3C3C"/><stop offset="0.793651" stop-color="#3C3C3C"/><stop offset="0.809524" stop-color="#3D3D3D"/><stop offset="0.825397" stop-color="#3D3D3D"/><stop offset="0.84127" stop-color="#3D3D3D"/><stop offset="0.857143" stop-color="#3E3E3E"/><stop offset="0.873016" stop-color="#3E3E3E"/><stop offset="0.888889" stop-color="#3E3E3E"/><stop offset="0.904762" stop-color="#3F3F3F"/><stop offset="0.920635" stop-color="#3F3F3F"/><stop offset="0.936508" stop-color="#3F3F3F"/><stop offset="0.952381" stop-color="#3F3F3F"/><stop offset="0.968254" stop-color="#3F3F3F"/><stop offset="0.984127" stop-color="#3F3F3F"/><stop offset="1" stop-color="#404040"/></linearGradient><linearGradient x1="332.288" y1="386.959" x2="1291.62" y2="386.959" gradientUnits="userSpaceOnUse" spreadMethod="reflect" id="fill2"><stop offset="0" stop-color="#404040"/><stop offset="0.00990099" stop-color="#414141"/><stop offset="0.019802" stop-color="#434343"/><stop offset="0.029703" stop-color="#454545"/><stop offset="0.039604" stop-color="#474747"/><stop offset="0.049505" stop-color="#494949"/><stop offset="0.0594059" stop-color="#4B4B4B"/><stop offset="0.0693069" stop-color="#4C4C4C"/><stop offset="0.0792079" stop-color="#4E4E4E"/><stop offset="0.0891089" stop-color="#505050"/><stop offset="0.0990099" stop-color="#525252"/><stop offset="0.108911" stop-color="#535353"/><stop offset="0.118812" stop-color="#555555"/><stop offset="0.128713" stop-color="#575757"/><stop offset="0.138614" stop-color="#585858"/><stop offset="0.148515" stop-color="#5A5A5A"/><stop offset="0.158416" stop-color="#5C5C5C"/><stop offset="0.168317" stop-color="#5D5D5D"/><stop offset="0.178218" stop-color="#5F5F5F"/><stop offset="0.188119" stop-color="#606060"/><stop offset="0.19802" stop-color="#626262"/><stop offset="0.207921" stop-color="#646464"/><stop offset="0.217822" stop-color="#656565"/><stop offset="0.227723" stop-color="#676767"/><stop offset="0.237624" stop-color="#686868"/><stop offset="0.247525" stop-color="#6A6A6A"/><stop offset="0.257426" stop-color="#6B6B6B"/><stop offset="0.267327" stop-color="#6D6D6D"/><stop offset="0.277228" stop-color="#6E6E6E"/><stop offset="0.287129" stop-color="#6F6F6F"/><stop offset="0.29703" stop-color="#717171"/><stop offset="0.306931" stop-color="#727272"/><stop offset="0.316832" stop-color="#747474"/><stop offset="0.326733" stop-color="#757575"/><stop offset="0.336634" stop-color="#767676"/><stop offset="0.346535" stop-color="#787878"/><stop offset="0.356436" stop-color="#797979"/><stop offset="0.366337" stop-color="#7A7A7A"/><stop offset="0.376238" stop-color="#7B7B7B"/><stop offset="0.386139" stop-color="#7D7D7D"/><stop offset="0.39604" stop-color="#7E7E7E"/><stop offset="0.405941" stop-color="#7F7F7F"/><stop offset="0.415842" stop-color="#808080"/><stop offset="0.425743" stop-color="#818181"/><stop offset="0.435644" stop-color="#838383"/><stop offset="0.445545" stop-color="#848484"/><stop offset="0.455446" stop-color="#858585"/><stop offset="0.465347" stop-color="#868686"/><stop offset="0.475248" stop-color="#878787"/><stop offset="0.485149" stop-color="#888888"/><stop offset="0.49505" stop-color="#898989"/><stop offset="0.504951" stop-color="#8A8A8A"/><stop offset="0.514852" stop-color="#8B8B8B"/><stop offset="0.524752" stop-color="#8C8C8C"/><stop offset="0.534653" stop-color="#8D8D8D"/><stop offset="0.544554" stop-color="#8E8E8E"/><stop offset="0.554455" stop-color="#8F8F8F"/><stop offset="0.564356" stop-color="#909090"/><stop offset="0.574257" stop-color="#919191"/><stop offset="0.584158" stop-color="#929292"/><stop offset="0.594059" stop-color="#939393"/><stop offset="0.60396" stop-color="#949494"/><stop offset="0.613861" stop-color="#949494"/><stop offset="0.623762" stop-color="#959595"/><stop offset="0.633663" stop-color="#969696"/><stop offset="0.643564" stop-color="#979797"/><stop offset="0.653465" stop-color="#989898"/><stop offset="0.663366" stop-color="#989898"/><stop offset="0.673267" stop-color="#999999"/><stop offset="0.683168" stop-color="#9A9A9A"/><stop offset="0.693069" stop-color="#9A9A9A"/><stop offset="0.70297" stop-color="#9B9B9B"/><stop offset="0.712871" stop-color="#9C9C9C"/><stop offset="0.722772" stop-color="#9C9C9C"/><stop offset="0.732673" stop-color="#9D9D9D"/><stop offset="0.742574" stop-color="#9D9D9D"/><stop offset="0.752475" stop-color="#9E9E9E"/><stop offset="0.762376" stop-color="#9F9F9F"/><stop offset="0.772277" stop-color="#9F9F9F"/><stop offset="0.782178" stop-color="#A0A0A0"/><stop offset="0.792079" stop-color="#A0A0A0"/><stop offset="0.80198" stop-color="#A1A1A1"/><stop offset="0.811881" stop-color="#A1A1A1"/><stop offset="0.821782" stop-color="#A1A1A1"/><stop offset="0.831683" stop-color="#A2A2A2"/><stop offset="0.841584" stop-color="#A2A2A2"/><stop offset="0.851485" stop-color="#A3A3A3"/><stop offset="0.861386" stop-color="#A3A3A3"/><stop offset="0.871287" stop-color="#A3A3A3"/><stop offset="0.881188" stop-color="#A4A4A4"/><stop offset="0.891089" stop-color="#A4A4A4"/><stop offset="0.90099" stop-color="#A4A4A4"/><stop offset="0.910891" stop-color="#A4A4A4"/><stop offset="0.920792" stop-color="#A5A5A5"/><stop offset="0.930693" stop-color="#A5A5A5"/><stop offset="0.940594" stop-color="#A5A5A5"/><stop offset="0.950495" stop-color="#A5A5A5"/><stop offset="0.960396" stop-color="#A5A5A5"/><stop offset="0.970297" stop-color="#A5A5A5"/><stop offset="0.980198" stop-color="#A5A5A5"/><stop offset="0.990099" stop-color="#A5A5A5"/><stop offset="1" stop-color="#A6A6A6"/></linearGradient></defs><g clip-path="url(#clip0)" transform="translate(-17 -204)"><rect x="19" y="206" width="304" height="308" stroke="#000000" stroke-width="2" stroke-miterlimit="8" fill="none"/><text fill="#7F7F7F" font-family="Arial Rounded MT,Arial Rounded MT_MSFontService,sans-serif" font-weight="700" font-size="32" transform="translate(274.81 246)">13</text><path d="M133.566 344.162 116.287 401.031 151.027 401.031ZM234.507 303.156 278.534 303.156 278.534 461.353 234.507 461.353ZM107.505 303.156 160.826 303.156 220.271 461.353 169.082 461.353 161.167 435.239 105.669 435.239 97.9586 461.353 48.0468 461.353Z" fill="url(#fill1)" fill-rule="evenodd"/><text fill="#000000" fill-opacity="0" font-family="Arial,Arial_MSFontService,sans-serif" font-size="158.196" x="48.0468" y="441.578">Al</text><path d="M935.13 346.558 979.265 346.558 979.265 409.578C979.265 416.772 980.596 421.879 983.258 424.901 985.919 427.922 989.66 429.433 994.48 429.433 999.732 429.433 1004.03 427.419 1007.38 423.39 1010.72 419.362 1012.39 412.132 1012.39 401.7L1012.39 346.558 1056.31 346.558 1056.31 461.159 1015.31 461.159 1015.31 442.598C1009.19 450.224 1003.02 455.655 996.8 458.893 990.577 462.13 982.934 463.749 973.869 463.749 961.783 463.749 952.305 460.134 945.435 452.904 938.565 445.674 935.13 434.541 935.13 419.505ZM716.18 346.558 760.099 346.558 760.099 461.159 716.18 461.159ZM345.13 346.558 389.265 346.558 389.265 409.578C389.265 416.772 390.596 421.879 393.258 424.901 395.919 427.922 399.66 429.433 404.48 429.433 409.732 429.433 414.03 427.419 417.375 423.39 420.721 419.362 422.393 412.132 422.393 401.7L422.393 346.558 466.313 346.558 466.313 461.159 425.307 461.159 425.307 442.598C419.192 450.224 413.023 455.655 406.8 458.893 400.577 462.13 392.934 463.749 383.869 463.749 371.783 463.749 362.305 460.134 355.435 452.904 348.565 445.674 345.13 434.541 345.13 419.505ZM1164.55 343.968C1173.7 343.968 1180.94 345.587 1186.27 348.824 1191.6 352.062 1195.96 356.882 1199.35 363.284 1206.25 355.802 1212.53 350.713 1218.21 348.015 1223.88 345.317 1230.89 343.968 1239.22 343.968 1251.51 343.968 1261.1 347.619 1267.99 354.921 1274.89 362.223 1278.34 373.644 1278.34 389.183L1278.34 461.159 1234.31 461.159 1234.31 395.873C1234.31 390.693 1233.31 386.845 1231.3 384.327 1228.36 380.37 1224.7 378.392 1220.33 378.392 1215.17 378.392 1211.01 380.262 1207.86 384.003 1204.7 387.744 1203.13 393.751 1203.13 402.024L1203.13 461.159 1159.1 461.159 1159.1 398.031C1159.1 392.995 1158.81 389.578 1158.23 387.78 1157.29 384.902 1155.67 382.582 1153.36 380.82 1151.05 379.057 1148.34 378.176 1145.24 378.176 1140.18 378.176 1136.03 380.082 1132.79 383.895 1129.54 387.708 1127.91 393.967 1127.91 402.671L1127.91 461.159 1083.89 461.159 1083.89 346.558 1124.89 346.558 1124.89 363.284C1130.8 356.306 1136.76 351.342 1142.78 348.393 1148.79 345.443 1156.05 343.968 1164.55 343.968ZM870.897 343.968C883.055 343.968 892.569 347.583 899.439 354.813 906.309 362.043 909.744 373.212 909.744 388.319L909.744 461.159 865.609 461.159 865.609 398.139C865.609 390.945 864.278 385.855 861.616 382.87 858.955 379.884 855.214 378.392 850.394 378.392 845.07 378.392 840.754 380.406 837.445 384.435 834.135 388.463 832.481 395.693 832.481 406.125L832.481 461.159 788.561 461.159 788.561 346.558 829.459 346.558 829.459 365.227C835.574 357.601 841.761 352.151 848.02 348.878 854.279 345.605 861.904 343.968 870.897 343.968ZM574.551 343.968C583.701 343.968 590.942 345.587 596.273 348.824 601.605 352.062 605.963 356.882 609.349 363.284 616.246 355.802 622.532 350.713 628.208 348.015 633.883 345.317 640.888 343.968 649.222 343.968 661.507 343.968 671.097 347.619 677.994 354.921 684.891 362.223 688.339 373.644 688.339 389.183L688.339 461.159 644.312 461.159 644.312 395.873C644.312 390.693 643.308 386.845 641.3 384.327 638.361 380.37 634.705 378.392 630.332 378.392 625.171 378.392 621.012 380.262 617.858 384.003 614.703 387.744 613.126 393.751 613.126 402.024L613.126 461.159 569.098 461.159 569.098 398.031C569.098 392.995 568.809 389.578 568.232 387.78 567.293 384.902 565.669 382.582 563.359 380.82 561.049 379.057 558.342 378.176 555.239 378.176 550.185 378.176 546.034 380.082 542.785 383.895 539.537 387.708 537.912 393.967 537.912 402.671L537.912 461.159 493.885 461.159 493.885 346.558 534.891 346.558 534.891 363.284C540.799 356.306 546.761 351.342 552.776 348.393 558.792 345.443 566.05 343.968 574.551 343.968ZM716.18 302.962 760.099 302.962 760.099 332.854 716.18 332.854Z" fill="url(#fill2)" fill-rule="evenodd"/><text fill="#000000" fill-opacity="0" font-family="Arial,Arial_MSFontService,sans-serif" font-size="160.786" x="345.13" y="443.65">uminum</text></g></svg>